<svg width="327px" height="327px" viewBox="0 0 327 327" version="1.1" xmlns="http://www.w3.org/2000/svg" xmlns:xlink="http://www.w3.org/1999/xlink">
  <g id="Page-1" stroke="none" stroke-width="1" fill="none" fill-rule="evenodd">
    <path d="M125.06,152.29 L76.31,152.29 C55.41,152.29 36.41,143.74 22.64,129.98 C8.87,116.21 0.33,97.22 0.33,76.31 C0.33,55.41 8.88,36.41 22.64,22.64 C36.41,8.87 55.4,0.33 76.31,0.33 C97.21,0.33 116.21,8.88 129.98,22.64 C143.75,36.4 152.29,55.4 152.29,76.31 L152.29,125.06 C152.29,132.56 149.23,139.37 144.29,144.3 C139.36,149.23 132.55,152.3 125.05,152.3 L125.06,152.29 Z M152.29,202.27 L152.29,251.02 C152.29,271.92 143.74,290.92 129.98,304.69 C116.21,318.46 97.22,327 76.31,327 C55.41,327 36.41,318.45 22.64,304.69 C8.87,290.92 0.33,271.93 0.33,251.02 C0.33,230.12 8.88,211.12 22.64,197.35 C36.41,183.58 55.4,175.04 76.31,175.04 L125.06,175.04 C132.56,175.04 139.37,178.1 144.3,183.04 C149.23,187.97 152.3,194.78 152.3,202.28 L152.29,202.27 Z M136.98,251.02 L136.98,202.27 C136.98,199 135.64,196.02 133.48,193.86 C131.31,191.7 128.33,190.36 125.07,190.36 L76.32,190.36 C59.65,190.36 44.48,197.19 33.48,208.18 C22.48,219.18 15.65,234.35 15.65,251.02 C15.65,267.7 22.48,282.86 33.48,293.86 C44.48,304.86 59.64,311.69 76.32,311.69 C93,311.69 108.16,304.86 119.16,293.86 C130.16,282.86 136.98,267.7 136.98,251.02 L136.98,251.02 Z M202.28,175.04 L251.03,175.04 C271.93,175.04 290.93,183.59 304.7,197.35 C318.47,211.11 327.01,230.11 327.01,251.02 C327.01,271.92 318.46,290.92 304.7,304.69 C290.93,318.46 271.94,327 251.03,327 C230.13,327 211.13,318.45 197.36,304.69 C183.59,290.92 175.05,271.93 175.05,251.02 L175.05,202.27 C175.05,194.77 178.11,187.96 183.05,183.03 C187.98,178.1 194.79,175.03 202.29,175.03 L202.28,175.04 Z M251.03,190.35 L202.28,190.35 C199.01,190.35 196.03,191.69 193.87,193.85 C191.71,196.02 190.37,198.99 190.37,202.26 L190.37,251.01 C190.37,267.69 197.2,282.85 208.19,293.85 C219.19,304.85 234.36,311.68 251.03,311.68 C267.71,311.68 282.87,304.85 293.87,293.85 C304.87,282.85 311.7,267.69 311.7,251.01 C311.7,234.33 304.87,219.17 293.87,208.17 C282.87,197.17 267.71,190.35 251.03,190.35 L251.03,190.35 Z M175.05,125.05 L175.05,76.3 C175.05,55.4 183.6,36.4 197.36,22.63 C211.13,8.86 230.12,0.32 251.03,0.32 C271.93,0.32 290.93,8.87 304.7,22.63 C318.47,36.39 327.01,55.39 327.01,76.3 C327.01,97.2 318.46,116.2 304.7,129.97 C290.93,143.74 271.94,152.28 251.03,152.28 L202.28,152.28 C194.78,152.28 187.97,149.22 183.04,144.28 C178.11,139.35 175.04,132.54 175.04,125.04 L175.05,125.05 Z M190.36,76.3 L190.36,125.05 C190.36,128.32 191.7,131.3 193.86,133.46 C196.03,135.62 199.01,136.96 202.27,136.96 L251.02,136.96 C267.7,136.96 282.86,130.13 293.86,119.14 C304.86,108.14 311.69,92.97 311.69,76.3 C311.69,59.62 304.86,44.46 293.86,33.46 C282.86,22.46 267.7,15.63 251.02,15.63 C234.34,15.63 219.18,22.46 208.18,33.46 C197.18,44.46 190.36,59.62 190.36,76.3 Z M76.32,136.97 L125.07,136.97 C128.34,136.97 131.32,135.63 133.48,133.47 C135.64,131.3 136.98,128.32 136.98,125.06 L136.98,76.31 C136.98,59.63 130.15,44.47 119.16,33.47 C108.16,22.47 92.99,15.64 76.32,15.64 C59.65,15.64 44.48,22.47 33.48,33.47 C22.48,44.47 15.65,59.63 15.65,76.31 C15.65,92.99 22.48,108.15 33.48,119.15 C44.48,130.15 59.64,136.97 76.32,136.97 Z" id="Shape" fill="#000000" fill-rule="nonzero"></path>
  </g>
</svg>
