<svg xmlns="http://www.w3.org/2000/svg" width="366" height="96" fill="none">
  <path fill="#262626" fill-rule="evenodd"
    d="M49.509 0c1.06 0 1.92.86 1.92 1.92v18.564c0 2.11 2.91 2.676 3.7.72L62.083 3.99a1.92 1.92 0 0 1 2.5-1.061l2.797 1.13a1.92 1.92 0 0 1 1.06 2.5l-7.413 18.35c-.784 1.939 1.659 3.555 3.138 2.076l13.994-13.994a1.92 1.92 0 0 1 2.715 0l2.134 2.134c.75.75.75 1.965 0 2.715L70.44 30.408c-1.5 1.5.182 3.966 2.126 3.117l16.286-7.116a1.92 1.92 0 0 1 2.528.991l1.208 2.765a1.92 1.92 0 0 1-.99 2.528l-18.767 8.199c-1.906.833-1.311 3.68.769 3.68H94.08c1.06 0 1.92.859 1.92 1.92v3.017c0 1.06-.86 1.92-1.92 1.92H73.601c-2.08 0-2.675 2.846-.769 3.679l18.766 8.2a1.92 1.92 0 0 1 .991 2.527L91.381 68.6a1.92 1.92 0 0 1-2.528.99l-16.286-7.115c-1.944-.85-3.626 1.617-2.126 3.117L83.008 78.16c.75.75.75 1.965 0 2.715l-2.134 2.134a1.92 1.92 0 0 1-2.715 0L64.165 69.013c-1.48-1.478-3.922.138-3.138 2.077l7.414 18.35a1.92 1.92 0 0 1-1.061 2.5l-2.797 1.13a1.92 1.92 0 0 1-2.5-1.061l-6.954-17.212c-.79-1.957-3.7-1.391-3.7.719V94.08c0 1.06-.86 1.92-1.92 1.92H46.49a1.92 1.92 0 0 1-1.92-1.92V75.516c0-2.11-2.91-2.676-3.7-.719l-6.954 17.212a1.92 1.92 0 0 1-2.5 1.061l-2.797-1.13a1.92 1.92 0 0 1-1.06-2.5l7.413-18.35c.784-1.939-1.659-3.555-3.138-2.077L17.841 83.008a1.92 1.92 0 0 1-2.715 0l-2.134-2.134a1.92 1.92 0 0 1 0-2.715L25.56 65.592c1.5-1.5-.182-3.966-2.126-3.117L7.147 69.59a1.92 1.92 0 0 1-2.528-.99L3.41 65.835a1.92 1.92 0 0 1 .99-2.528l18.767-8.2c1.906-.832 1.311-3.678-.77-3.678H1.92A1.92 1.92 0 0 1 0 49.509V46.49c0-1.06.86-1.92 1.92-1.92h20.479c2.08 0 2.675-2.846.769-3.679L4.402 32.693a1.92 1.92 0 0 1-.991-2.528L4.619 27.4a1.92 1.92 0 0 1 2.528-.99l16.286 7.115c1.944.85 3.626-1.617 2.126-3.117L12.992 17.84a1.92 1.92 0 0 1 0-2.715l2.134-2.134a1.92 1.92 0 0 1 2.715 0l13.994 13.994c1.48 1.48 3.922-.137 3.138-2.076L27.559 6.56a1.92 1.92 0 0 1 1.061-2.5l2.798-1.13a1.92 1.92 0 0 1 2.499 1.061l6.954 17.212c.79 1.957 3.7 1.391 3.7-.719V1.92c0-1.06.86-1.92 1.92-1.92h3.018ZM48 68.571c11.361 0 20.571-9.21 20.571-20.571S59.361 27.429 48 27.429 27.429 36.639 27.429 48 36.639 68.571 48 68.571Z"
    clip-rule="evenodd" />

  <path fill="#262626"
    d="M350.973 72.04c-3.12 0-5.893-.715-8.32-2.145-2.427-1.473-4.333-3.51-5.72-6.11-1.343-2.643-2.015-5.677-2.015-9.1 0-3.337.65-6.305 1.95-8.905 1.3-2.643 3.098-4.68 5.395-6.11 2.34-1.473 4.983-2.21 7.93-2.21s5.568.737 7.865 2.21c2.297 1.43 4.073 3.467 5.33 6.11 1.3 2.643 1.95 5.677 1.95 9.1v1.625h-24.05c0 1.95.39 3.683 1.17 5.2a9.384 9.384 0 0 0 3.38 3.51c1.43.823 3.077 1.235 4.94 1.235 2.037 0 3.77-.498 5.2-1.495 1.43-.997 2.383-2.34 2.86-4.03l6.37.65c-.607 3.163-2.21 5.698-4.81 7.605-2.557 1.907-5.698 2.86-9.425 2.86Zm7.93-20.605c0-1.647-.368-3.098-1.105-4.355-.737-1.257-1.777-2.232-3.12-2.925-1.343-.737-2.86-1.105-4.55-1.105-1.733 0-3.272.368-4.615 1.105-1.343.693-2.383 1.668-3.12 2.925-.737 1.257-1.105 2.708-1.105 4.355h17.615ZM326.951 71c-2.167 0-3.987-.347-5.46-1.04-1.43-.693-2.514-1.733-3.25-3.12-.694-1.43-1.04-3.228-1.04-5.395V28.1h6.175v33.41c0 1.3.325 2.275.975 2.925.65.65 1.625.975 2.925.975h5.85V71h-6.175Zm-16.77-32.5h22.945v5.59h-22.945V38.5ZM301.377 38.5h6.175V71h-6.175V38.5Zm-.65-11.895h7.54v6.89h-7.54v-6.89ZM277.995 72.04c-2.166 0-4.051-.52-5.655-1.56-1.603-1.04-2.838-2.513-3.705-4.42-.823-1.907-1.235-4.182-1.235-6.825V38.5h6.175v20.605c0 2.297.542 4.095 1.625 5.395 1.084 1.3 2.622 1.95 4.615 1.95 2.687 0 4.832-1.105 6.435-3.315 1.647-2.21 2.47-5.157 2.47-8.84l1.17 5.265c0 2.34-.52 4.463-1.56 6.37-.996 1.907-2.405 3.402-4.225 4.485-1.82 1.083-3.856 1.625-6.11 1.625ZM288.72 38.5h6.175V71h-6.175V38.5ZM247.198 72.04c-3.38 0-6.413-.758-9.1-2.275a16.594 16.594 0 0 1-6.24-6.24c-1.473-2.687-2.21-5.72-2.21-9.1l6.37-.65c0 2.34.455 4.485 1.365 6.435.954 1.907 2.297 3.423 4.03 4.55 1.734 1.127 3.727 1.69 5.98 1.69 1.647 0 3.207-.303 4.68-.91 1.474-.607 2.665-1.473 3.575-2.6.91-1.127 1.365-2.47 1.365-4.03 0-1.603-.498-2.947-1.495-4.03-.953-1.083-2.145-1.95-3.575-2.6-1.43-.65-3.401-1.408-5.915-2.275-2.99-1.04-5.416-1.993-7.28-2.86a14.06 14.06 0 0 1-4.68-3.77c-1.256-1.647-1.885-3.705-1.885-6.175 0-2.513.65-4.723 1.95-6.63 1.3-1.95 3.055-3.445 5.265-4.485 2.254-1.083 4.724-1.625 7.41-1.625 2.644 0 5.07.498 7.28 1.495 2.21.997 4.03 2.427 5.46 4.29 1.43 1.863 2.254 4.052 2.47 6.565l-6.37.65c-.173-1.473-.693-2.773-1.56-3.9a8.655 8.655 0 0 0-3.25-2.6c-1.3-.607-2.708-.91-4.225-.91-2.253 0-4.16.607-5.72 1.82-1.56 1.17-2.34 2.752-2.34 4.745 0 1.473.455 2.708 1.365 3.705.954.997 2.124 1.82 3.51 2.47 1.387.607 3.294 1.3 5.72 2.08 3.034 1.083 5.482 2.08 7.345 2.99 1.907.91 3.532 2.21 4.875 3.9 1.344 1.647 2.015 3.792 2.015 6.435 0 2.6-.715 4.962-2.145 7.085-1.386 2.08-3.315 3.727-5.785 4.94-2.426 1.213-5.178 1.82-8.255 1.82ZM198.016 38.5h6.045l10.14 28.275h-2.015L222.911 38.5h6.045L216.606 71h-6.955l-11.635-32.5ZM182.936 72.04c-3.12 0-5.893-.715-8.32-2.145-2.427-1.473-4.333-3.51-5.72-6.11-1.343-2.643-2.015-5.677-2.015-9.1 0-3.337.65-6.305 1.95-8.905 1.3-2.643 3.098-4.68 5.395-6.11 2.34-1.473 4.983-2.21 7.93-2.21s5.568.737 7.865 2.21c2.297 1.43 4.073 3.467 5.33 6.11 1.3 2.643 1.95 5.677 1.95 9.1v1.625h-24.05c0 1.95.39 3.683 1.17 5.2a9.384 9.384 0 0 0 3.38 3.51c1.43.823 3.077 1.235 4.94 1.235 2.037 0 3.77-.498 5.2-1.495 1.43-.997 2.383-2.34 2.86-4.03l6.37.65c-.607 3.163-2.21 5.698-4.81 7.605-2.557 1.907-5.698 2.86-9.425 2.86Zm7.93-20.605c0-1.647-.368-3.098-1.105-4.355-.737-1.257-1.777-2.232-3.12-2.925-1.343-.737-2.86-1.105-4.55-1.105-1.733 0-3.272.368-4.615 1.105-1.343.693-2.383 1.668-3.12 2.925-.737 1.257-1.105 2.708-1.105 4.355h17.615ZM127.135 25.5h14.56c4.246 0 8.016.953 11.31 2.86 3.293 1.907 5.85 4.593 7.67 8.06 1.82 3.423 2.73 7.367 2.73 11.83s-.91 8.428-2.73 11.895c-1.82 3.423-4.377 6.088-7.67 7.995-3.294 1.907-7.064 2.86-11.31 2.86h-14.56V25.5Zm14.56 39.91c2.99 0 5.655-.715 7.995-2.145 2.34-1.473 4.138-3.488 5.395-6.045 1.3-2.6 1.95-5.59 1.95-8.97 0-3.38-.65-6.348-1.95-8.905-1.257-2.6-3.055-4.615-5.395-6.045-2.34-1.473-5.005-2.21-7.995-2.21h-8.19v34.32h8.19Z" />
</svg>
