<svg xmlns="http://www.w3.org/2000/svg" width="240" height="240" fill="none">
  <path fill="#fff" d="M0 0h240v240H0z" />
  <path fill="#262626" fill-rule="evenodd"
    d="M123.017 24a3.84 3.84 0 0 1 3.84 3.84v37.128c0 4.22 5.82 5.352 7.401 1.438l13.907-34.424a3.841 3.841 0 0 1 5-2.122l5.595 2.26a3.84 3.84 0 0 1 2.122 5l-14.828 36.699c-1.567 3.879 3.317 7.112 6.276 4.154l27.988-27.989a3.84 3.84 0 0 1 5.43 0l4.268 4.267a3.841 3.841 0 0 1 0 5.43l-25.134 25.134c-3 3 .365 7.933 4.253 6.234l32.571-14.23a3.84 3.84 0 0 1 5.056 1.981l2.416 5.53a3.84 3.84 0 0 1-1.981 5.056l-37.532 16.398c-3.813 1.666-2.624 7.359 1.537 7.359h40.958a3.84 3.84 0 0 1 3.84 3.84v6.034a3.84 3.84 0 0 1-3.84 3.84h-40.957c-4.162 0-5.351 5.693-1.538 7.359l37.532 16.398a3.84 3.84 0 0 1 1.981 5.056l-2.416 5.529a3.84 3.84 0 0 1-5.056 1.982l-32.571-14.23c-3.888-1.699-7.253 3.233-4.253 6.234l25.134 25.133a3.84 3.84 0 0 1 0 5.43l-4.268 4.268a3.84 3.84 0 0 1-5.43 0l-27.988-27.989c-2.959-2.958-7.843.275-6.276 4.154l14.828 36.7a3.84 3.84 0 0 1-2.122 4.998l-5.595 2.261a3.841 3.841 0 0 1-5-2.122l-13.907-34.424c-1.581-3.914-7.401-2.782-7.401 1.438v37.128a3.84 3.84 0 0 1-3.84 3.84h-6.034a3.84 3.84 0 0 1-3.84-3.84v-37.128c0-4.22-5.82-5.352-7.401-1.438l-13.908 34.424a3.84 3.84 0 0 1-4.999 2.122l-5.595-2.261a3.84 3.84 0 0 1-2.122-4.998l14.828-36.7c1.567-3.879-3.318-7.112-6.276-4.154l-27.988 27.989a3.841 3.841 0 0 1-5.43 0l-4.268-4.268a3.84 3.84 0 0 1 0-5.43l25.134-25.134c3-3-.364-7.932-4.253-6.233l-32.571 14.23a3.84 3.84 0 0 1-5.056-1.982l-2.416-5.529a3.84 3.84 0 0 1 1.981-5.056l37.532-16.398c3.813-1.666 2.624-7.359-1.537-7.359H27.84a3.84 3.84 0 0 1-3.84-3.84v-6.034a3.84 3.84 0 0 1 3.84-3.84h40.958c4.16 0 5.35-5.693 1.537-7.359L32.803 89.386a3.84 3.84 0 0 1-1.981-5.056l2.416-5.53a3.84 3.84 0 0 1 5.056-1.981l32.571 14.23c3.889 1.7 7.253-3.233 4.253-6.234L49.984 59.682a3.84 3.84 0 0 1 0-5.43l4.267-4.268a3.84 3.84 0 0 1 5.43 0l27.99 27.989c2.957 2.958 7.842-.275 6.275-4.154l-14.828-36.7a3.84 3.84 0 0 1 2.122-4.998l5.595-2.26a3.84 3.84 0 0 1 5 2.121l13.907 34.424c1.581 3.914 7.401 2.782 7.401-1.438V27.84a3.84 3.84 0 0 1 3.84-3.84h6.034ZM120 161.143c22.722 0 41.143-18.421 41.143-41.143S142.722 78.857 120 78.857 78.857 97.277 78.857 120c0 22.722 18.42 41.143 41.143 41.143Z"
    clip-rule="evenodd" />
</svg>
